<svg width="60" height="40" viewBox="0 0 60 40" fill="none" xmlns="http://www.w3.org/2000/svg">
<rect width="60" height="40" rx="5" fill="white"/>
<path d="M51.6382 12.543H48.4949C47.5446 12.543 46.8136 12.8354 46.375 13.7857L40.3809 27.4552H44.6206C44.6206 27.4552 45.3516 25.6278 45.4978 25.1892C45.9364 25.1892 50.1031 25.1892 50.6879 25.1892C50.8341 25.7009 51.1996 27.3822 51.1996 27.3822H55.0007L51.6382 12.543ZM46.6674 22.119C47.0329 21.2418 48.2756 17.9523 48.2756 17.9523C48.2756 18.0254 48.6411 17.0751 48.7873 16.5634L49.0797 17.8792C49.0797 17.8792 49.8838 21.4611 50.03 22.1921H46.6674V22.119Z" fill="#3362AB"/>
<path d="M40.6716 22.5581C40.6716 25.6283 37.8939 27.6751 33.581 27.6751C31.7535 27.6751 29.9991 27.3096 29.0488 26.871L29.6336 23.5084L30.1453 23.7277C31.4611 24.3125 32.3383 24.5318 33.9465 24.5318C35.1161 24.5318 36.3588 24.0932 36.3588 23.0698C36.3588 22.4119 35.8471 21.9733 34.2389 21.2423C32.7038 20.5114 30.657 19.3418 30.657 17.2219C30.657 14.2979 33.5079 12.3242 37.5284 12.3242C39.0634 12.3242 40.3792 12.6166 41.1833 12.9821L40.5985 16.1985L40.3061 15.9061C39.5751 15.6137 38.6248 15.3213 37.236 15.3213C35.7009 15.3944 34.9699 16.0523 34.9699 16.6371C34.9699 17.295 35.8471 17.8067 37.236 18.4646C39.5751 19.5611 40.6716 20.8038 40.6716 22.5581Z" fill="#3362AB"/>
<path d="M5 12.6889L5.0731 12.3965H11.3596C12.2368 12.3965 12.8947 12.6889 13.114 13.6392L14.5029 20.2181C13.114 16.7094 9.89766 13.8585 5 12.6889Z" fill="#F9B50B"/>
<path d="M23.347 12.5438L16.9874 27.383H12.6745L9.01953 14.9561C11.6511 16.6374 13.8441 19.2689 14.6482 21.0964L15.0868 22.6315L19.0342 12.4707H23.347V12.5438Z" fill="#3362AB"/>
<path d="M25.0292 12.4707H29.0497L26.4912 27.383H22.4707L25.0292 12.4707Z" fill="#3362AB"/>
</svg>
