<svg width="18" height="24" viewBox="0 0 18 24" fill="none" xmlns="http://www.w3.org/2000/svg">
<path d="M6.3405 0.0526485C5.832 0.254232 5.436 0.633957 5.2605 1.10275C5.166 1.34653 5.157 1.46373 5.139 2.43414L5.121 3.503H2.5605H0V3.9718V4.44059H0.855H1.71L1.7235 13.1227C1.7325 21.1392 1.7415 21.8283 1.809 22.0674C2.0925 23.0144 2.7495 23.6894 3.6225 23.9191C4.023 24.027 13.977 24.027 14.3775 23.9191C15.2505 23.6894 15.9075 23.0144 16.191 22.0674C16.2585 21.8283 16.2675 21.1392 16.2765 13.1227L16.29 4.44059H17.145H18V3.9718V3.503H15.4395H12.879L12.861 2.43414C12.843 1.46373 12.834 1.34653 12.7395 1.09807C12.5955 0.718342 12.231 0.319862 11.871 0.146408L11.5875 0.0104561L9.045 0.00108147C7.029 -0.0036068 6.471 0.00576782 6.3405 0.0526485ZM11.556 1.01368C11.691 1.09807 11.7765 1.19651 11.8575 1.36528C11.9655 1.59031 11.97 1.6325 11.97 2.55134V3.503H9H6.03V2.55134C6.03 1.6325 6.0345 1.59031 6.1425 1.36528C6.2595 1.11682 6.4395 0.976179 6.705 0.919924C6.7905 0.901173 7.875 0.891796 9.1125 0.891796L11.3625 0.901173L11.556 1.01368ZM15.39 12.8649C15.39 18.1107 15.372 21.397 15.345 21.5705C15.2235 22.3533 14.6475 22.9347 13.8825 23.0519C13.4595 23.1128 4.5405 23.1128 4.1175 23.0519C3.3525 22.9347 2.7765 22.3533 2.655 21.5705C2.628 21.397 2.61 18.1107 2.61 12.8649V4.44059H9H15.39V12.8649Z" fill="#3B3B3B"/>
<path d="M5.13281 13.7688V21.3633H5.58281H6.03281V13.7688V6.17424H5.58281H5.13281V13.7688Z" fill="#3B3B3B"/>
<path d="M8.55078 13.7688V21.3633H9.00078H9.45078V13.7688V6.17424H9.00078H8.55078V13.7688Z" fill="#3B3B3B"/>
<path d="M11.9727 13.7688V21.3633H12.4227H12.8727V13.7688V6.17424H12.4227H11.9727V13.7688Z" fill="#3B3B3B"/>
</svg>
